<svg xmlns="http://www.w3.org/2000/svg" width="24" height="24" viewBox="0 0 24 24" fill="none">
  <path fill-rule="evenodd" clip-rule="evenodd" d="M18.707 7.293C18.8945 7.48053 18.9998 7.73484 18.9998 8C18.9998 8.26516 18.8945 8.51947 18.707 8.707L10.707 16.707C10.5195 16.8945 10.2652 16.9998 10 16.9998C9.73483 16.9998 9.48053 16.8945 9.293 16.707L5.293 12.707C5.11084 12.5184 5.01005 12.2658 5.01232 12.0036C5.0146 11.7414 5.11977 11.4906 5.30518 11.3052C5.49059 11.1198 5.7414 11.0146 6.0036 11.0123C6.26579 11.01 6.5184 11.1108 6.707 11.293L10 14.586L17.293 7.293C17.4805 7.10553 17.7348 7.00021 18 7.00021C18.2652 7.00021 18.5195 7.10553 18.707 7.293Z" fill="#22C348"/>
</svg>