<svg width="24" height="24" viewBox="0 0 24 24" fill="none" xmlns="http://www.w3.org/2000/svg">
<path d="M11.9997 15.3333C12.1555 15.3333 12.2861 15.2807 12.3917 15.1753C12.4972 15.0699 12.55 14.9394 12.55 14.7836C12.55 14.6279 12.4973 14.4972 12.392 14.3917C12.2866 14.2861 12.156 14.2333 12.0003 14.2333C11.8445 14.2333 11.7139 14.286 11.6083 14.3914C11.5028 14.4967 11.45 14.6273 11.45 14.783C11.45 14.9388 11.5027 15.0694 11.608 15.175C11.7134 15.2806 11.844 15.3333 11.9997 15.3333ZM11.55 12.7833H12.55V8.56667H11.55V12.7833ZM12.0044 18.6667C11.0852 18.6667 10.2213 18.4917 9.41277 18.1417C8.60425 17.7917 7.89722 17.3139 7.29167 16.7083C6.68611 16.1028 6.20833 15.3953 5.85833 14.586C5.50833 13.7767 5.33333 12.9119 5.33333 11.9917C5.33333 11.0715 5.50833 10.2067 5.85833 9.39735C6.20833 8.58801 6.68611 7.88333 7.29167 7.28333C7.89722 6.68333 8.60467 6.20833 9.41402 5.85833C10.2233 5.50833 11.0881 5.33333 12.0083 5.33333C12.9285 5.33333 13.7933 5.50833 14.6026 5.85833C15.412 6.20833 16.1167 6.68333 16.7167 7.28333C17.3167 7.88333 17.7917 8.58889 18.1417 9.4C18.4917 10.2111 18.6667 11.0763 18.6667 11.9956C18.6667 12.9148 18.4917 13.7787 18.1417 14.5872C17.7917 15.3957 17.3167 16.1018 16.7167 16.7053C16.1167 17.3088 15.4111 17.7866 14.6 18.1386C13.7889 18.4906 12.9237 18.6667 12.0044 18.6667ZM12.0083 17.6667C13.5806 17.6667 14.9167 17.1139 16.0167 16.0083C17.1167 14.9028 17.6667 13.5639 17.6667 11.9917C17.6667 10.4194 17.1177 9.08333 16.0198 7.98333C14.9219 6.88333 13.5819 6.33333 12 6.33333C10.4333 6.33333 9.09722 6.88229 7.99167 7.9802C6.88611 9.07812 6.33333 10.4181 6.33333 12C6.33333 13.5667 6.88611 14.9028 7.99167 16.0083C9.09722 17.1139 10.4361 17.6667 12.0083 17.6667Z" fill="#C10202"/>
</svg>
