<svg width="16" height="14" viewBox="0 0 16 14" fill="none" xmlns="http://www.w3.org/2000/svg">
<path d="M2.99992 9C2.99992 9.26522 3.10528 9.51957 3.29281 9.70711C3.48035 9.89464 3.7347 10 3.99992 10C4.26514 10 4.51949 9.89464 4.70703 9.70711C4.89456 9.51957 4.99992 9.26522 4.99992 9V3.414L6.29292 4.707C6.48152 4.88916 6.73412 4.98995 6.99632 4.98767C7.25852 4.9854 7.50933 4.88023 7.69474 4.69482C7.88015 4.50941 7.98531 4.2586 7.98759 3.9964C7.98987 3.7342 7.88908 3.4816 7.70692 3.293L4.70692 0.293C4.51939 0.105529 4.26508 0.000213623 3.99992 0.000213623C3.73475 0.000213623 3.48045 0.105529 3.29292 0.293L0.292919 3.293C0.110761 3.4816 0.00996641 3.7342 0.0122448 3.9964C0.0145233 4.2586 0.119692 4.50941 0.3051 4.69482C0.490508 4.88023 0.741321 4.9854 1.00352 4.98767C1.26571 4.98995 1.51832 4.88916 1.70692 4.707L2.99992 3.414V9ZM12.9999 5C12.9999 4.73478 12.8946 4.48043 12.707 4.29289C12.5195 4.10536 12.2651 4 11.9999 4C11.7347 4 11.4803 4.10536 11.2928 4.29289C11.1053 4.48043 10.9999 4.73478 10.9999 5V10.586L9.70692 9.293C9.51832 9.11084 9.26571 9.01005 9.00352 9.01233C8.74132 9.0146 8.49051 9.11977 8.3051 9.30518C8.11969 9.49059 8.01452 9.7414 8.01225 10.0036C8.00997 10.2658 8.11076 10.5184 8.29292 10.707L11.2929 13.707C11.4804 13.8945 11.7348 13.9998 11.9999 13.9998C12.2651 13.9998 12.5194 13.8945 12.7069 13.707L15.7069 10.707C15.8891 10.5184 15.9899 10.2658 15.9876 10.0036C15.9853 9.7414 15.8801 9.49059 15.6947 9.30518C15.5093 9.11977 15.2585 9.0146 14.9963 9.01233C14.7341 9.01005 14.4815 9.11084 14.2929 9.293L12.9999 10.586V5Z" fill="#84919A"/>
</svg>
