<svg width="14" height="12" viewBox="0 0 14 12" fill="none" xmlns="http://www.w3.org/2000/svg">
<path d="M7.24749 1.75251C7.1108 1.61583 6.8892 1.61583 6.75251 1.75251L4.52513 3.9799C4.38844 4.11658 4.38844 4.33819 4.52513 4.47487C4.66181 4.61156 4.88342 4.61156 5.0201 4.47487L7 2.49497L8.9799 4.47487C9.11658 4.61156 9.33819 4.61156 9.47487 4.47487C9.61156 4.33819 9.61156 4.11658 9.47487 3.9799L7.24749 1.75251ZM6.75251 10.2475C6.8892 10.3842 7.1108 10.3842 7.24749 10.2475L9.47487 8.0201C9.61156 7.88342 9.61156 7.66181 9.47487 7.52513C9.33819 7.38844 9.11658 7.38844 8.9799 7.52513L7 9.50503L5.0201 7.52513C4.88342 7.38844 4.66181 7.38844 4.52513 7.52513C4.38844 7.66181 4.38844 7.88342 4.52513 8.0201L6.75251 10.2475ZM6.65 2L6.65 10L7.35 10L7.35 2L6.65 2Z" fill="white"/>
</svg>
